HIERARCHY
ROOT hip
{
  OFFSET -1.30054 80.9391 -133.953
  CHANNELS 6 Xposition Yposition Zposition Zrotation Xrotation Yrotation
  JOINT abdomen
  {
    OFFSET 0 20.6881 -0.73152
    CHANNELS 3 Zrotation Xrotation Yrotation
    JOINT chest
    {
      OFFSET 0 11.7043 -0.48768
      CHANNELS 3 Zrotation Xrotation Yrotation
      JOINT neck
      {
        OFFSET 0 22.1894 -2.19456
        CHANNELS 3 Zrotation Xrotation Yrotation
        JOINT head
        {
          OFFSET -0.24384 7.07133 1.2192
          CHANNELS 3 Zrotation Xrotation Yrotation
          JOINT leftEye
          {
            OFFSET 4.14528 8.04674 8.04672
            CHANNELS 3 Zrotation Xrotation Yrotation
            End Site
            {
              OFFSET 1 0 0
            }
          }
          JOINT rightEye
          {
            OFFSET -3.6576 8.04674 8.04672
            CHANNELS 3 Zrotation Xrotation Yrotation
            End Site
            {
              OFFSET 1 0 0
            }
          }
        }
      }
      JOINT rCollar
      {
        OFFSET -2.68224 19.2634 -4.8768
        CHANNELS 3 Zrotation Xrotation Yrotation
        JOINT rShldr
        {
          OFFSET -8.77824 -1.95073 1.46304
          CHANNELS 3 Zrotation Xrotation Yrotation
          JOINT rForeArm
          {
            OFFSET -28.1742 -1.7115 0.48768
            CHANNELS 3 Zrotation Xrotation Yrotation
            JOINT rHand
            {
              OFFSET -22.5879 0.773209 7.07136
              CHANNELS 3 Zrotation Xrotation Yrotation
              JOINT rThumb1
              {
                OFFSET -1.2192 -0.487915 3.41376
                CHANNELS 3 Zrotation Xrotation Yrotation
                JOINT rThumb2
                {
                  OFFSET -3.37035 -0.52449 3.41376
                  CHANNELS 3 Zrotation Xrotation Yrotation
                  End Site
                  {
                    OFFSET -1.78271 -1.18214 1.43049
                  }
                }
              }
              JOINT rIndex1
              {
                OFFSET -7.75947 0.938293 5.60832
                CHANNELS 3 Zrotation Xrotation Yrotation
                JOINT rIndex2
                {
                  OFFSET -2.54057 -0.884171 1.56538
                  CHANNELS 3 Zrotation Xrotation Yrotation
                  End Site
                  {
                    OFFSET -1.62519 -0.234802 1.16502
                  }
                }
              }
              JOINT rMid1
              {
                OFFSET -8.24714 1.18213 3.41376
                CHANNELS 3 Zrotation Xrotation Yrotation
                JOINT rMid2
                {
                  OFFSET -3.10165 -0.590103 1.0647
                  CHANNELS 3 Zrotation Xrotation Yrotation
                  End Site
                  {
                    OFFSET -2.48547 -0.328903 0.83742
                  }
                }
              }
              JOINT rRing1
              {
                OFFSET -8.82822 0.546677 1.51678
                CHANNELS 3 Zrotation Xrotation Yrotation
                JOINT rRing2
                {
                  OFFSET -2.60934 -0.819778 -0.0198488
                  CHANNELS 3 Zrotation Xrotation Yrotation
                  End Site
                  {
                    OFFSET -2.33842 -0.294052 0.168128
                  }
                }
              }
              JOINT rPinky1
              {
                OFFSET -8.27202 -0.0477905 -0.4584
                CHANNELS 3 Zrotation Xrotation Yrotation
                JOINT rPinky2
                {
                  OFFSET -1.82734 -0.647385 -0.700984
                  CHANNELS 3 Zrotation Xrotation Yrotation
                  End Site
                  {
                    OFFSET -1.69225 -0.51767 -0.607171
                  }
                }
              }
            }
          }
        }
      }
      JOINT lCollar
      {
        OFFSET 2.68224 19.2634 -4.8768
        CHANNELS 3 Zrotation Xrotation Yrotation
        JOINT lShldr
        {
          OFFSET 8.77824 -1.95073 1.46304
          CHANNELS 3 Zrotation Xrotation Yrotation
          JOINT lForeArm
          {
            OFFSET 28.1742 -1.7115 0.48768
            CHANNELS 3 Zrotation Xrotation Yrotation
            JOINT lHand
            {
              OFFSET 22.5879 0.773209 7.07136
              CHANNELS 3 Zrotation Xrotation Yrotation
              JOINT lThumb1
              {
                OFFSET 1.2192 -0.487915 3.41376
                CHANNELS 3 Zrotation Xrotation Yrotation
                JOINT lThumb2
                {
                  OFFSET 3.37035 -0.52449 3.41376
                  CHANNELS 3 Zrotation Xrotation Yrotation
                  End Site
                  {
                    OFFSET 1.78271 -1.18214 1.43049
                  }
                }
              }
              JOINT lIndex1
              {
                OFFSET 7.75947 0.938293 5.60832
                CHANNELS 3 Zrotation Xrotation Yrotation
                JOINT lIndex2
                {
                  OFFSET 2.54057 -0.884171 1.56538
                  CHANNELS 3 Zrotation Xrotation Yrotation
                  End Site
                  {
                    OFFSET 1.62519 -0.234802 1.16502
                  }
                }
              }
              JOINT lMid1
              {
                OFFSET 8.24714 1.18213 3.41376
                CHANNELS 3 Zrotation Xrotation Yrotation
                JOINT lMid2
                {
                  OFFSET 3.10165 -0.590103 1.0647
                  CHANNELS 3 Zrotation Xrotation Yrotation
                  End Site
                  {
                    OFFSET 2.48547 -0.328903 0.83742
                  }
                }
              }
              JOINT lRing1
              {
                OFFSET 8.82822 0.546677 1.51678
                CHANNELS 3 Zrotation Xrotation Yrotation
                JOINT lRing2
                {
                  OFFSET 2.60934 -0.819778 -0.0198488
                  CHANNELS 3 Zrotation Xrotation Yrotation
                  End Site
                  {
                    OFFSET 2.33842 -0.294052 0.168128
                  }
                }
              }
              JOINT lPinky1
              {
                OFFSET 8.27202 -0.0477905 -0.4584
                CHANNELS 3 Zrotation Xrotation Yrotation
                JOINT lPinky2
                {
                  OFFSET 1.82734 -0.647385 -0.700984
                  CHANNELS 3 Zrotation Xrotation Yrotation
                  End Site
                  {
                    OFFSET 1.69225 -0.51767 -0.607171
                  }
                }
              }
            }
          }
        }
      }
    }
  }
  JOINT rButtock
  {
    OFFSET -8.77824 4.35084 1.2192
    CHANNELS 3 Zrotation Xrotation Yrotation
    JOINT rThigh
    {
      OFFSET 0 -1.70687 -2.19456
      CHANNELS 3 Zrotation Xrotation Yrotation
      JOINT rShin
      {
        OFFSET 0 -36.8199 0.73152
        CHANNELS 3 Zrotation Xrotation Yrotation
        JOINT rFoot
        {
          OFFSET 0.73152 -45.1104 -5.12064
          CHANNELS 3 Zrotation Xrotation Yrotation
          End Site
          {
            OFFSET -1.1221 -3.69964 12.103
          }
        }
      }
    }
  }
  JOINT lButtock
  {
    OFFSET 8.77824 4.35084 1.2192
    CHANNELS 3 Zrotation Xrotation Yrotation
    JOINT lThigh
    {
      OFFSET 0 -1.70687 -2.19456
      CHANNELS 3 Zrotation Xrotation Yrotation
      JOINT lShin
      {
        OFFSET 0 -36.8199 0.73152
        CHANNELS 3 Zrotation Xrotation Yrotation
        JOINT lFoot
        {
          OFFSET -0.73152 -45.1104 -5.12064
          CHANNELS 3 Zrotation Xrotation Yrotation
          End Site
          {
            OFFSET 1.1221 -3.69964 12.103
          }
        }
      }
    }
  }
}
MOTION
Frames:	7
Frame Time:	0.00833333
11.3799 81.5825 -137.547 8.915 -0.11461 139.028 -8.99892 -7.35336 7.6754 -6.74418 2.48607 2.03123 -4.55457 15.7405 0.372039 16.4848 10.7226 -6.16566 -0 0 0 -0 0 0 8.45183e-014 2.34366e-013 5.91707e-013 59.0578 36.4566 42.7327 -11.4153 -57.9002 132.411 -1.14696 -28.8978 -4.44923 2.75074e-009 2.06584e-010 -1.37547e-009 4.78307e-009 3.67494e-010 -2.30835e-009 2.75074e-009 2.0659e-010 -1.37547e-009 7.73091 5.47488 0.417314 2.75073e-009 2.06589e-010 -1.37546e-009 2.90554 0.965183 0.102902 2.75075e-009 2.0659e-010 -1.37547e-009 10.2786 0.731801 0.0259123 2.75073e-009 2.06589e-010 -1.37546e-009 2.22167 -0.733487 -0.20892 8.44542e-014 2.34368e-013 5.91462e-013 -73.226 -23.8692 15.9722 10.8202 -4.6549 -19.349 0.738591 -23.6439 3.52759 5.75561e-010 3.0074e-009 8.3733e-012 9.80476e-010 5.22548e-009 3.39115e-011 5.75554e-010 3.00741e-009 8.39406e-012 -7.73091 5.47488 -0.417314 5.75559e-010 3.00741e-009 8.37186e-012 -2.90554 0.965183 -0.102902 5.75545e-010 3.00741e-009 8.37053e-012 -10.2786 0.731801 -0.0259123 5.75554e-010 3.0074e-009 8.36686e-012 -2.22167 -0.733487 0.20892 -2.03217e-016 0 -3.88251e-019 -14.1143 -24.815 -5.19259 -0.586769 51.1461 1.38734 -7.94421 -18.6502 -17.3588 2.03217e-016 0 3.88251e-019 -3.12157 -3.56883 25.4621 0.0844807 34.9838 -0.850816 -2.35565 -23.8144 -6.6738 
11.3715 81.5768 -137.579 8.95169 -0.106755 139.13 -9.0251 -7.41458 7.70625 -6.77134 2.5222 2.042 -4.48154 15.7087 0.335896 16.352 10.7381 -6.21982 -0 0 0 -0 0 0 -3.39274e-014 1.94374e-013 2.96364e-013 59.1175 36.2995 42.758 -11.4061 -57.9032 132.428 -1.1479 -28.9084 -4.45118 1.52398e-009 2.38238e-010 -9.46564e-011 2.63321e-009 4.20534e-010 -1.2449e-010 1.52398e-009 2.38242e-010 -9.46643e-011 7.73091 5.47488 0.417314 1.52398e-009 2.3824e-010 -9.4652e-011 2.90554 0.965183 0.102902 1.52399e-009 2.38241e-010 -9.46552e-011 10.2786 0.731801 0.0259123 1.52397e-009 2.38241e-010 -9.46407e-011 2.22167 -0.733487 -0.20892 -3.4012e-014 1.94398e-013 2.96146e-013 -73.2689 -23.6225 15.7322 10.8665 -4.6848 -19.4368 0.741953 -23.6939 3.53598 -2.00776e-010 2.29786e-009 -7.98747e-010 -3.45704e-010 3.99061e-009 -1.37499e-009 -2.00779e-010 2.29787e-009 -7.98719e-010 -7.73091 5.47488 -0.417314 -2.00778e-010 2.29786e-009 -7.9875e-010 -2.90554 0.965183 -0.102902 -2.0079e-010 2.29786e-009 -7.9875e-010 -10.2786 0.731801 -0.0259123 -2.00782e-010 2.29786e-009 -7.98756e-010 -2.22167 -0.733487 0.20892 -2.03217e-016 0 -3.88251e-019 -14.146 -24.8198 -5.18958 -0.587753 51.1758 1.38868 -7.90437 -18.6346 -17.282 2.03217e-016 0 3.88251e-019 -3.17255 -3.50809 25.4768 0.0837243 34.9521 -0.851053 -2.31548 -23.831 -6.57917 
11.3558 81.5712 -137.602 9.00596 -0.115808 139.226 -9.08513 -7.47426 7.75667 -6.80714 2.55701 2.05803 -4.38314 15.6733 0.286659 16.2284 10.7492 -6.29913 -0 0 0 -0 0 0 -9.05972e-014 1.47877e-013 1.36814e-013 59.2135 36.1181 42.7525 -11.3847 -57.9107 132.469 -1.14907 -28.9215 -4.4536 1.07599e-009 2.49505e-010 5.7055e-010 1.8433e-009 4.4024e-010 1.01452e-009 1.07599e-009 2.49507e-010 5.70541e-010 7.73091 5.47488 0.417314 1.07599e-009 2.49504e-010 5.7055e-010 2.90554 0.965183 0.102902 1.076e-009 2.49506e-010 5.70553e-010 10.2786 0.731801 0.0259123 1.07598e-009 2.49507e-010 5.70569e-010 2.22167 -0.733487 -0.20892 -9.07006e-014 1.47914e-013 1.36615e-013 -73.2923 -23.3436 15.476 10.9151 -4.71628 -19.529 0.744876 -23.7372 3.54324 -8.41864e-010 1.9968e-009 -1.07954e-009 -1.44784e-009 3.46488e-009 -1.87136e-009 -8.41865e-010 1.99681e-009 -1.07951e-009 -7.73091 5.47488 -0.417314 -8.41866e-010 1.9968e-009 -1.07954e-009 -2.90554 0.965183 -0.102902 -8.41876e-010 1.9968e-009 -1.07954e-009 -10.2786 0.731801 -0.0259123 -8.41869e-010 1.9968e-009 -1.07955e-009 -2.22167 -0.733487 0.20892 -2.03217e-016 0 -3.88251e-019 -14.2159 -24.8297 -5.20377 -0.589032 51.2141 1.39037 -7.86034 -18.6161 -17.1972 2.03217e-016 0 3.88251e-019 -3.25185 -3.44275 25.4941 0.0825544 34.9079 -0.851055 -2.27791 -23.8425 -6.49223 
11.3358 81.5656 -137.62 9.08912 -0.154465 139.313 -9.20551 -7.53135 7.85447 -6.86634 2.59635 2.08753 -4.22527 15.628 0.209391 16.1225 10.7502 -6.43094 -0 0 0 -0 0 0 -4.80651e-014 7.22757e-014 1.75959e-013 59.3851 35.8832 42.69 -11.3454 -57.9247 132.544 -1.14993 -28.9311 -4.45537 1.87737e-009 2.321e-010 3.03992e-010 3.23376e-009 4.13646e-010 5.73802e-010 1.87738e-009 2.32101e-010 3.03983e-010 7.73091 5.47488 0.417314 1.87737e-009 2.32098e-010 3.03993e-010 2.90554 0.965183 0.102902 1.87738e-009 2.32099e-010 3.03995e-010 10.2786 0.731801 0.0259123 1.87737e-009 2.321e-010 3.04012e-010 2.22167 -0.733487 -0.20892 -4.81897e-014 7.23139e-014 1.75767e-013 -73.2739 -23.0042 15.1788 10.9609 -4.74601 -19.6163 0.746291 -23.7577 3.54671 -1.39165e-009 2.33644e-009 -5.1631e-010 -2.40755e-009 4.05073e-009 -9.06554e-010 -1.39165e-009 2.33645e-009 -5.16282e-010 -7.73091 5.47488 -0.417314 -1.39165e-009 2.33644e-009 -5.16311e-010 -2.90554 0.965183 -0.102902 -1.39166e-009 2.33644e-009 -5.16311e-010 -10.2786 0.731801 -0.0259123 -1.39165e-009 2.33644e-009 -5.16318e-010 -2.22167 -0.733487 0.20892 -2.03217e-016 0 -3.88251e-019 -14.3488 -24.8487 -5.24499 -0.590814 51.2667 1.39262 -7.8102 -18.5948 -17.1002 2.03217e-016 0 3.88251e-019 -3.37858 -3.37151 25.5138 0.08073 34.8436 -0.850689 -2.24426 -23.8446 -6.41721 
11.3111 81.5599 -137.63 9.19465 -0.214957 139.392 -9.37026 -7.58656 7.98917 -6.94402 2.64201 2.12769 -4.02229 15.575 0.109664 16.0285 10.7401 -6.60336 -0 0 0 -0 0 0 5.3164e-014 -3.60962e-014 3.11983e-013 59.6111 35.6035 42.5888 -11.2923 -57.9436 132.646 -1.15046 -28.937 -4.45645 3.3929e-009 1.89321e-010 -4.89287e-010 5.87048e-009 3.45086e-010 -7.59747e-010 3.3929e-009 1.89321e-010 -4.89295e-010 7.73091 5.47488 0.417314 3.3929e-009 1.89319e-010 -4.89283e-010 2.90554 0.965183 0.102902 3.3929e-009 1.89319e-010 -4.89284e-010 10.2786 0.731801 0.0259123 3.39289e-009 1.89319e-010 -4.89269e-010 2.22167 -0.733487 -0.20892 5.30152e-014 -3.60641e-014 3.11791e-013 -73.2221 -22.6159 14.8462 11.0049 -4.77451 -19.7002 0.746514 -23.7606 3.54721 -1.95639e-009 2.98104e-009 5.91877e-010 -3.4025e-009 5.16511e-009 1.00011e-009 -1.95639e-009 2.98105e-009 5.91895e-010 -7.73091 5.47488 -0.417314 -1.95639e-009 2.98104e-009 5.91878e-010 -2.90554 0.965183 -0.102902 -1.9564e-009 2.98104e-009 5.91876e-010 -10.2786 0.731801 -0.0259123 -1.95639e-009 2.98104e-009 5.91871e-010 -2.22167 -0.733487 0.20892 -2.03217e-016 0 -3.88251e-019 -14.5291 -24.8738 -5.30635 -0.592986 51.3304 1.39534 -7.75561 -18.572 -16.9938 2.03217e-016 0 3.88251e-019 -3.54203 -3.29488 25.5336 0.0784154 34.7636 -0.850057 -2.21275 -23.8395 -6.34934 
11.2839 81.5544 -137.639 9.30218 -0.274808 139.473 -9.53147 -7.64163 8.10603 -7.01067 2.67948 2.16219 -3.84035 15.5266 0.0169498 15.9318 10.7326 -6.76377 -0 0 0 -0 0 0 1.5926e-013 -1.23644e-013 4.79718e-013 59.8177 35.3376 42.4962 -11.2355 -57.9638 132.754 -1.15189 -28.9531 -4.4594 4.96511e-009 1.37334e-010 -1.40171e-009 8.60808e-009 2.60481e-010 -2.29783e-009 4.96512e-009 1.37335e-010 -1.40172e-009 7.73091 5.47488 0.417314 4.96511e-009 1.37332e-010 -1.4017e-009 2.90554 0.965183 0.102902 4.96512e-009 1.37332e-010 -1.40171e-009 10.2786 0.731801 0.0259123 4.96511e-009 1.37332e-010 -1.40169e-009 2.22167 -0.733487 -0.20892 1.59094e-013 -1.23621e-013 4.79522e-013 -73.1776 -22.2327 14.5311 11.0573 -4.80887 -19.8002 0.747693 -23.778 3.55013 -2.35751e-009 3.65996e-009 1.7545e-009 -4.11581e-009 6.33982e-009 3.00368e-009 -2.35752e-009 3.65996e-009 1.75451e-009 -7.73091 5.47488 -0.417314 -2.35752e-009 3.65996e-009 1.75451e-009 -2.90554 0.965183 -0.102902 -2.35752e-009 3.65996e-009 1.7545e-009 -10.2786 0.731801 -0.0259123 -2.35751e-009 3.65995e-009 1.7545e-009 -2.22167 -0.733487 0.20892 -2.03217e-016 0 -3.88251e-019 -14.7133 -24.8985 -5.3709 -0.595178 51.3945 1.39809 -7.69972 -18.5466 -16.8857 2.03217e-016 0 3.88251e-019 -3.70724 -3.21545 25.5562 0.0760328 34.6816 -0.849386 -2.18185 -23.8348 -6.28272 
11.2566 81.5478 -137.647 9.39131 -0.311509 139.563 -9.64146 -7.6984 8.1503 -7.03673 2.69424 2.17472 -3.74539 15.4952 -0.0393295 15.818 10.7415 -6.85954 -0 0 0 -0 0 0 2.16394e-013 -1.36774e-013 6.13996e-013 59.9323 35.1445 42.4578 -11.1849 -57.9816 132.851 -1.15545 -28.9932 -4.46679 5.93658e-009 9.23092e-011 -2.0257e-009 1.03012e-008 1.85754e-010 -3.35214e-009 5.93659e-009 9.23088e-011 -2.02571e-009 7.73091 5.47488 0.417314 5.93658e-009 9.23071e-011 -2.0257e-009 2.90554 0.965183 0.102902 5.93659e-009 9.23066e-011 -2.0257e-009 10.2786 0.731801 0.0259123 5.93658e-009 9.23057e-011 -2.02569e-009 2.22167 -0.733487 -0.20892 2.16226e-013 -1.36756e-013 6.13797e-013 -73.1835 -21.9096 14.2848 11.1287 -4.85608 -19.9359 0.751997 -23.8421 3.56089 -2.41646e-009 4.10252e-009 2.48105e-009 -4.23061e-009 7.10663e-009 4.25922e-009 -2.41647e-009 4.10252e-009 2.48105e-009 -7.73091 5.47488 -0.417314 -2.41646e-009 4.10252e-009 2.48105e-009 -2.90554 0.965183 -0.102902 -2.41647e-009 4.10252e-009 2.48105e-009 -10.2786 0.731801 -0.0259123 -2.41646e-009 4.10252e-009 2.48105e-009 -2.22167 -0.733487 0.20892 -2.03217e-016 0 -3.88251e-019 -14.8577 -24.9159 -5.42165 -0.597014 51.4485 1.40044 -7.64567 -18.5178 -16.7837 2.03217e-016 0 3.88251e-019 -3.83929 -3.13582 25.5838 0.0740029 34.6112 -0.8489 -2.14998 -23.838 -6.21143 
